<?xml version="1.0" standalone="no"?>
<!DOCTYPE svg PUBLIC "-//W3C//DTD SVG 20010904//EN"
 "http://www.w3.org/TR/2001/REC-SVG-20010904/DTD/svg10.dtd">
<svg version="1.0" xmlns="http://www.w3.org/2000/svg"
 width="505.000000pt" height="287.000000pt" viewBox="0 0 505.000000 287.000000"
 preserveAspectRatio="xMidYMid meet">

<g transform="translate(0.000000,287.000000) scale(0.100000,-0.100000)"
fill="#FFFFFF" stroke="none">
<path d="M1683 2863 c14 -4 17 -17 17 -88 0 -71 -3 -84 -17 -88 -10 -3 19 -5
63 -6 85 -1 94 4 94 47 -1 14 -3 13 -12 -3 -15 -27 -28 -35 -60 -35 -26 0 -28
3 -28 41 0 45 16 49 37 8 11 -22 13 -18 13 36 0 54 -2 58 -13 36 -21 -41 -37
-37 -37 8 0 36 3 41 23 41 27 0 40 -9 55 -35 10 -18 11 -17 12 13 l0 32 -82
-1 c-46 -1 -75 -3 -65 -6z"/>
<path d="M1979 2851 c21 -14 -16 -160 -44 -171 -20 -9 -20 -9 2 -9 12 -1 30
-4 40 -7 14 -5 15 -4 4 4 -12 9 -12 19 -1 71 7 34 16 63 19 66 4 2 25 -36 46
-85 22 -48 43 -83 46 -77 4 7 14 45 24 85 11 45 24 76 33 80 13 5 12 7 -4 13
-10 4 -26 8 -34 8 -12 1 -12 -1 -1 -8 9 -6 11 -20 6 -50 -4 -22 -10 -43 -15
-46 -4 -3 -20 24 -35 59 -26 62 -42 76 -85 76 -12 0 -13 -2 -1 -9z"/>
<path d="M1386 2831 c-19 -7 -19 -8 3 -14 17 -4 22 -11 17 -22 -3 -9 -6 -33
-6 -53 l-1 -37 -35 40 c-19 22 -33 47 -30 56 3 16 0 16 -42 1 -38 -12 -42 -16
-26 -22 35 -14 47 -36 38 -74 l-9 -35 -34 41 c-19 22 -34 47 -34 55 0 8 -6 12
-15 8 -7 -3 -24 -8 -36 -11 -20 -5 -19 -8 21 -50 24 -25 56 -63 72 -84 16 -22
31 -36 35 -33 3 3 6 25 6 49 0 78 8 82 56 28 l43 -49 1 70 c0 39 4 87 9 108 9
39 5 43 -33 28z"/>
<path d="M2264 2740 c-31 -12 -64 -59 -64 -90 0 -35 34 -79 76 -96 48 -20 69
-17 82 12 7 14 17 22 22 19 6 -3 10 -4 10 -1 0 3 -18 15 -41 27 -23 11 -38 15
-34 9 12 -19 -4 -60 -24 -60 -32 0 -54 35 -47 74 9 46 51 96 81 96 28 0 68
-47 62 -72 -7 -27 1 -22 18 12 17 33 19 44 6 35 -5 -3 -26 6 -47 20 -38 26
-64 30 -100 15z"/>
<path d="M991 2685 c-58 -36 -87 -60 -60 -50 12 4 27 -12 58 -65 37 -61 41
-73 29 -87 -15 -20 -15 -20 79 40 l63 39 -15 29 c-19 36 -24 37 -17 4 5 -29
-21 -65 -47 -65 -17 0 -53 54 -43 64 9 10 20 7 36 -10 24 -23 19 -4 -10 41
-17 26 -24 32 -21 18 9 -39 -17 -46 -38 -11 -17 30 -17 31 0 45 23 16 47 17
63 1 16 -16 15 3 -2 25 -16 21 -10 22 -75 -18z"/>
<path d="M2557 2610 c9 -13 2 -27 -39 -80 -36 -46 -56 -64 -70 -62 -12 1 8
-20 48 -51 l69 -54 26 21 c32 25 30 31 -4 15 -22 -10 -31 -9 -52 5 -14 9 -25
22 -25 29 0 22 92 128 106 123 24 -9 16 1 -28 35 -24 19 -38 27 -31 19z"/>
<path d="M831 2556 c-21 -22 -22 -24 -4 -20 14 4 27 -5 47 -30 31 -41 28 -42
-58 -24 -55 11 -59 10 -82 -13 l-24 -25 26 1 c14 1 67 -6 117 -16 51 -10 98
-18 106 -18 7 -1 -15 31 -49 69 -39 44 -60 76 -56 85 8 21 3 19 -23 -9z"/>
<path d="M760 2436 c0 -5 18 -29 41 -53 29 -32 39 -51 36 -65 -5 -19 -4 -19
19 3 26 24 31 35 12 23 -7 -5 -30 13 -60 47 -26 30 -48 50 -48 45z"/>
<path d="M2740 2364 c-41 -14 -88 -25 -103 -26 l-28 -1 22 -24 c26 -27 30 -29
23 -9 -3 8 3 19 14 25 16 8 23 5 41 -20 17 -23 20 -33 11 -50 -10 -17 -14 -18
-28 -8 -9 7 -4 -2 13 -21 45 -53 49 -56 41 -43 -3 6 14 54 38 107 25 53 42 96
38 95 -4 -1 -41 -12 -82 -25z m9 -38 c-12 -25 -13 -25 -32 -9 -18 17 -18 18
10 29 35 15 37 13 22 -20z"/>
<path d="M2933 2239 c7 -23 0 -31 -71 -73 -52 -31 -65 -36 -78 -25 -11 9 -10
4 3 -19 14 -24 19 -28 21 -14 2 9 28 32 59 50 63 37 62 42 15 -84 l-30 -82 81
49 c66 39 84 46 95 36 12 -9 11 -5 -2 21 -17 32 -30 44 -20 18 4 -10 -9 -24
-35 -40 -22 -14 -43 -26 -45 -26 -3 0 7 31 21 70 l26 69 -23 33 c-12 18 -20
26 -17 17z"/>
<path d="M0 2086 c0 -10 14 -16 43 -18 l42 -3 3 -345 c2 -342 2 -345 -19 -362
-12 -10 -30 -18 -40 -18 -10 0 -19 -7 -19 -15 0 -12 19 -15 110 -15 87 0 110
3 110 14 0 7 -13 16 -30 19 -59 12 -61 24 -58 342 l3 289 124 -192 c68 -106
125 -192 127 -192 5 0 114 217 111 221 -1 2 0 3 3 1 2 -2 28 43 57 100 l52
103 0 -327 c1 -314 0 -328 -18 -338 -11 -5 -29 -10 -40 -10 -12 0 -21 -4 -21
-10 0 -5 19 -10 43 -10 23 0 93 -3 155 -7 100 -5 112 -4 112 10 0 11 -8 17
-23 17 -46 0 -47 4 -47 360 0 314 1 338 18 353 10 10 28 17 40 17 13 0 22 6
22 15 0 13 -20 15 -124 15 l-123 0 -89 -149 -90 -149 -93 149 -93 149 -124 0
c-101 0 -124 -3 -124 -14z"/>
<path d="M1475 2083 c-24 -14 -26 -18 -12 -21 14 -3 17 -14 17 -57 l0 -53 -29
11 c-79 30 -163 -93 -120 -176 27 -53 84 -72 127 -41 20 14 22 14 22 0 0 -20
4 -20 43 1 25 13 28 18 15 21 -16 3 -18 19 -18 168 0 90 -3 164 -7 164 -5 -1
-21 -8 -38 -17z m-11 -155 c10 -15 16 -45 16 -85 0 -53 -3 -64 -21 -73 -49
-27 -99 21 -99 93 0 70 70 114 104 65z"/>
<path d="M2095 2083 c-24 -14 -26 -18 -12 -21 15 -3 17 -19 17 -152 0 -131 -2
-150 -17 -159 -14 -8 -5 -10 37 -10 42 0 51 2 38 10 -16 9 -18 29 -18 179 0
94 -3 170 -7 170 -5 -1 -21 -8 -38 -17z"/>
<path d="M3055 1979 c5 -13 -10 -22 -69 -43 -83 -29 -96 -31 -96 -14 0 6 -3 9
-6 6 -3 -3 8 -35 24 -70 35 -77 68 -98 126 -78 42 14 66 43 66 82 0 29 -26
106 -42 123 -6 6 -7 4 -3 -6z m25 -83 c0 -42 -49 -76 -109 -76 -31 0 -60 25
-45 40 9 8 131 58 147 59 4 1 7 -10 7 -23z"/>
<path d="M994 1951 c-50 -30 -68 -105 -39 -161 19 -37 52 -60 88 -60 92 0 147
106 97 188 -33 53 -91 66 -146 33z m94 -26 c37 -47 36 -143 -1 -167 -59 -38
-128 66 -97 147 20 52 66 61 98 20z"/>
<path d="M1748 1941 c-31 -27 -33 -34 -33 -91 0 -57 2 -64 33 -91 44 -40 93
-40 133 0 16 16 29 37 29 47 0 13 -5 12 -25 -10 -14 -15 -35 -26 -50 -26 -32
0 -85 50 -85 79 0 20 6 21 80 21 74 0 80 1 80 21 0 11 -13 34 -29 50 -40 40
-89 40 -133 0z m94 -8 c33 -30 23 -43 -37 -43 -59 0 -67 8 -35 40 24 24 47 25
72 3z"/>
<path d="M950 1545 c0 -10 10 -15 34 -15 65 0 66 -3 66 -382 0 -334 0 -337
-22 -358 -12 -11 -34 -20 -50 -20 -18 0 -28 -5 -28 -15 0 -13 46 -15 355 -15
195 0 355 3 355 8 0 4 9 61 20 127 24 144 23 135 6 135 -7 0 -21 -21 -31 -46
-22 -58 -65 -107 -124 -142 -42 -24 -57 -27 -162 -31 -165 -4 -159 -12 -159
209 0 165 1 170 20 170 39 0 77 -29 99 -74 11 -25 21 -53 21 -61 0 -8 7 -15
15 -15 13 0 15 26 15 175 0 138 -3 175 -13 175 -7 0 -21 -25 -31 -55 -18 -59
-41 -80 -94 -91 l-32 -6 0 146 0 146 79 0 c122 0 191 -40 214 -127 6 -24 17
-43 24 -43 10 0 13 27 13 110 l0 110 -295 0 c-256 0 -295 -2 -295 -15z"/>
<path d="M2514 1499 c-10 -17 13 -36 27 -22 12 12 4 33 -11 33 -5 0 -12 -5
-16 -11z"/>
<path d="M4194 1499 c-10 -17 13 -36 27 -22 12 12 4 33 -11 33 -5 0 -12 -5
-16 -11z"/>
<path d="M1725 1363 c-24 -14 -26 -18 -12 -21 14 -3 17 -16 17 -87 0 -69 -3
-86 -17 -94 -14 -8 -5 -10 36 -11 47 0 52 2 37 13 -14 10 -16 25 -14 87 3 69
5 75 30 90 48 26 62 7 66 -86 2 -65 0 -81 -14 -91 -15 -11 -10 -13 37 -13 41
1 50 3 37 11 -15 8 -18 25 -18 94 0 72 -3 88 -20 105 -26 26 -54 25 -91 -1
l-29 -20 0 20 c0 25 -6 25 -45 4z"/>
<path d="M2155 1368 c-49 -29 -59 -78 -24 -122 17 -22 18 -27 6 -32 -21 -8
-30 -34 -16 -50 8 -10 6 -20 -10 -40 -29 -37 -26 -53 14 -70 91 -37 205 8 205
83 0 37 -36 53 -118 53 -54 0 -73 3 -70 13 3 6 28 14 57 17 66 7 96 37 88 87
-5 28 -3 33 14 33 34 0 20 18 -18 24 -21 3 -54 8 -73 11 -20 3 -44 0 -55 -7z
m79 -20 c20 -29 20 -82 0 -102 -36 -36 -84 -2 -84 61 0 58 54 84 84 41z m65
-207 c19 -12 5 -46 -25 -59 -32 -15 -96 -15 -129 0 -28 12 -30 20 -15 49 9 16
22 19 83 19 40 0 78 -4 86 -9z"/>
<path d="M2505 1363 c-24 -14 -26 -18 -12 -21 14 -3 17 -16 17 -87 0 -69 -3
-86 -17 -94 -14 -8 -5 -10 37 -10 42 0 51 2 38 10 -15 8 -18 26 -18 114 0 58
-3 105 -7 105 -5 -1 -21 -8 -38 -17z"/>
<path d="M2775 1363 c-24 -14 -26 -18 -12 -21 14 -3 17 -16 17 -87 0 -69 -3
-86 -17 -94 -14 -8 -5 -10 36 -11 47 0 52 2 37 13 -14 10 -16 25 -14 87 3 69
5 75 30 90 48 26 62 7 66 -86 2 -65 0 -81 -14 -91 -15 -11 -10 -13 37 -13 41
1 50 3 37 11 -15 8 -18 25 -18 94 0 72 -3 88 -20 105 -26 26 -54 25 -91 -1
l-29 -20 0 20 c0 25 -6 25 -45 4z"/>
<path d="M3178 1351 c-31 -27 -33 -34 -33 -91 0 -57 2 -64 33 -91 44 -40 93
-40 133 0 16 16 29 37 29 47 0 13 -5 12 -25 -10 -14 -15 -35 -26 -50 -26 -32
0 -85 50 -85 79 0 20 6 21 80 21 74 0 80 1 80 21 0 11 -13 34 -29 50 -40 40
-89 40 -133 0z m94 -8 c33 -30 23 -43 -37 -43 -59 0 -67 8 -35 40 24 24 47 25
72 3z"/>
<path d="M3538 1351 c-31 -27 -33 -34 -33 -91 0 -57 2 -64 33 -91 44 -40 93
-40 133 0 16 16 29 37 29 47 0 13 -5 12 -25 -10 -14 -15 -35 -26 -50 -26 -32
0 -85 50 -85 79 0 20 6 21 80 21 74 0 80 1 80 21 0 11 -13 34 -29 50 -40 40
-89 40 -133 0z m94 -8 c33 -30 23 -43 -37 -43 -59 0 -67 8 -35 40 24 24 47 25
72 3z"/>
<path d="M3875 1363 c-24 -14 -26 -18 -12 -21 14 -3 17 -16 17 -87 0 -69 -3
-86 -17 -94 -14 -8 -5 -10 37 -10 42 0 51 2 38 10 -15 8 -18 24 -18 88 0 87 8
102 56 98 20 -1 29 3 29 13 0 21 -32 24 -60 6 -22 -15 -25 -15 -25 -1 0 19 -7
18 -45 -2z"/>
<path d="M4185 1363 c-24 -14 -26 -18 -12 -21 14 -3 17 -16 17 -87 0 -69 -3
-86 -17 -94 -14 -8 -5 -10 37 -10 42 0 51 2 38 10 -15 8 -18 26 -18 114 0 58
-3 105 -7 105 -5 -1 -21 -8 -38 -17z"/>
<path d="M4445 1363 c-24 -14 -26 -18 -12 -21 14 -3 17 -16 17 -87 0 -69 -3
-86 -17 -94 -14 -8 -5 -10 36 -11 47 0 52 2 37 13 -14 10 -16 25 -14 87 3 69
5 75 30 90 48 26 62 7 66 -86 2 -65 0 -81 -14 -91 -15 -11 -10 -13 37 -13 41
1 50 3 37 11 -15 8 -18 25 -18 94 0 72 -3 88 -20 105 -26 26 -54 25 -91 -1
l-29 -20 0 20 c0 25 -6 25 -45 4z"/>
<path d="M4875 1368 c-49 -29 -59 -78 -24 -122 17 -22 18 -27 6 -32 -21 -8
-30 -34 -16 -50 8 -10 6 -20 -10 -40 -29 -37 -26 -53 14 -70 91 -37 205 8 205
83 0 37 -36 53 -118 53 -54 0 -73 3 -70 13 3 6 28 14 57 17 66 7 96 37 88 87
-5 28 -3 33 14 33 34 0 20 18 -18 24 -21 3 -54 8 -73 11 -20 3 -44 0 -55 -7z
m79 -20 c20 -29 20 -82 0 -102 -36 -36 -84 -2 -84 61 0 58 54 84 84 41z m65
-207 c19 -12 5 -46 -25 -59 -32 -15 -96 -15 -129 0 -28 12 -30 20 -15 49 9 16
22 19 83 19 40 0 78 -4 86 -9z"/>
<path d="M2856 932 c-3 -10 -9 -24 -12 -32 -5 -13 -4 -13 5 0 12 17 10 18 45
-37 l26 -43 -56 0 c-46 0 -55 3 -50 15 12 31 -4 13 -21 -22 -26 -58 -26 -59
-12 -45 7 7 38 12 71 12 70 0 120 -22 112 -48 -3 -9 8 3 24 28 16 25 28 47 25
50 -2 2 -8 -2 -13 -9 -15 -26 -70 18 -106 86 -23 44 -34 57 -38 45z"/>
<path d="M549 911 c-17 -14 -25 -32 -29 -72 -5 -49 -7 -54 -30 -54 -20 0 -26
6 -28 28 -2 16 4 39 12 53 l16 24 -35 -17 c-19 -9 -31 -19 -26 -22 5 -4 13
-19 16 -34 7 -25 47 -67 65 -67 4 0 18 8 31 19 17 14 25 32 29 72 6 59 29 78
50 39 9 -17 8 -26 -5 -46 -8 -13 -12 -24 -8 -24 15 1 58 29 46 30 -7 0 -13 9
-13 20 0 21 -41 70 -58 70 -6 0 -20 -8 -33 -19z"/>
<path d="M2543 496 c-61 -60 -61 -61 -41 -79 19 -19 20 -18 14 1 -8 24 2 52
18 51 6 0 34 -28 63 -62 43 -50 50 -64 40 -76 -7 -9 7 -1 31 18 47 36 49 39
26 37 -9 0 -40 27 -71 61 -52 59 -53 62 -34 73 16 8 27 8 44 -1 22 -11 22 -11
-2 15 -14 14 -25 25 -25 25 -1 -1 -29 -29 -63 -63z"/>
<path d="M759 511 c-83 -83 15 -211 120 -157 57 30 66 98 20 151 -42 47 -96
49 -140 6z m129 -3 c23 -23 13 -63 -25 -100 -49 -45 -67 -51 -94 -29 -20 16
-21 21 -10 48 26 64 100 110 129 81z"/>
<path d="M2158 272 c-36 -15 -70 -31 -74 -35 -5 -4 -1 -5 7 -2 13 5 22 -10 43
-65 29 -78 32 -100 14 -100 -6 0 -9 -2 -7 -5 9 -8 154 53 153 64 -5 56 -6 57
-15 25 -5 -18 -19 -36 -35 -43 -29 -13 -34 -10 -52 31 -14 34 2 47 29 23 18
-18 19 -17 1 31 -15 44 -17 46 -20 22 -5 -39 -27 -35 -39 6 -10 34 -10 35 19
41 21 5 35 2 49 -11 19 -17 19 -16 8 14 -6 18 -12 32 -12 31 -1 0 -32 -13 -69
-27z"/>
<path d="M1213 283 c-12 -2 -34 -18 -48 -34 -29 -35 -33 -83 -9 -118 21 -30
77 -53 109 -45 39 10 29 20 -14 16 -33 -3 -42 0 -56 21 -13 21 -14 32 -5 66
10 39 50 81 75 81 22 0 56 -34 58 -57 0 -13 4 -19 8 -15 11 12 21 53 12 50 -4
-1 -19 5 -33 14 -29 19 -66 27 -97 21z"/>
<path d="M1684 183 c17 -5 18 -12 13 -85 -3 -51 -10 -84 -19 -89 -8 -5 9 -8
42 -8 30 1 47 3 38 6 -15 4 -18 17 -18 83 0 65 3 81 18 89 13 8 4 10 -38 10
-30 -1 -47 -3 -36 -6z"/>
</g>
</svg>
